<?xml version="1.0" encoding="utf-8"?>
<!-- Generator: Adobe Illustrator 21.0.0, SVG Export Plug-In . SVG Version: 6.00 Build 0)  -->
<svg version="1.1" id="Calque_2" xmlns="http://www.w3.org/2000/svg" xmlns:xlink="http://www.w3.org/1999/xlink" x="0px" y="0px"
	 viewBox="0 0 31.3 31.2" style="enable-background:new 0 0 31.3 31.2;" xml:space="preserve">
<style type="text/css">
	.st0{fill:#7D358A;}
	.st1{fill:#222E3B;}
	.st2{fill:url(#SVGID_1_);}
	.st3{fill:url(#SVGID_2_);}
	.st4{fill:url(#SVGID_3_);}
	.st5{fill:url(#SVGID_4_);}
</style>
<g>
	<g>
		<path class="st0" d="M15.6,1.2c8,0,14.4,6.5,14.4,14.4c0,8-6.5,14.4-14.4,14.4c-8,0-14.4-6.5-14.4-14.4C1.2,7.7,7.7,1.2,15.6,1.2
			 M15.6,0C7,0,0,7,0,15.6c0,8.6,7,15.6,15.6,15.6c8.6,0,15.6-7,15.6-15.6C31.3,7,24.3,0,15.6,0L15.6,0z"/>
	</g>
</g>
<path class="st1" d="M9.6,10.9"/>
<g>
	<g>
		<linearGradient id="SVGID_1_" gradientUnits="userSpaceOnUse" x1="16.8167" y1="15.6298" x2="25.0275" y2="15.6298">
			<stop  offset="0" style="stop-color:#B92183"/>
			<stop  offset="2.267800e-02" style="stop-color:#B92183"/>
			<stop  offset="1" style="stop-color:#7D338A"/>
		</linearGradient>
		<path class="st2" d="M25,21.6c-0.1-0.8-0.4-1.5-0.6-2.3c-0.2-0.8-0.4-1.5-0.6-2.3c-0.5-1.9-1-3.8-1.5-5.8
			c-0.1-0.4-0.2-0.9-0.3-1.3c-0.1-0.2-0.1-0.5-0.3-0.6c-0.2-0.1-0.4-0.1-0.6-0.1c-0.3,0-0.5,0-0.8,0c-0.5,0-1.1,0-1.6,0
			c-0.4,0-0.7,0-1.1,0.1c-0.3,0.1-0.6,0.2-0.8,0.6c-0.1,0.1,0,0.3,0.1,0.4c0.1,0,0.2,0,0.3,0c0,0,0.3-0.2,0.3-0.2l3,11.1l0,0
			c0,0,0,0.1,0,0.1c0.1,0.2,0.2,0.5,0.4,0.6c0.1,0.1,0.3,0.1,0.5,0.1h0.3h0.5h1.5h0.8C24.8,22,25.1,21.8,25,21.6z"/>
	</g>
	<g>
		<linearGradient id="SVGID_2_" gradientUnits="userSpaceOnUse" x1="9.4114" y1="15.6298" x2="17.6221" y2="15.6298">
			<stop  offset="0" style="stop-color:#B92183"/>
			<stop  offset="2.267800e-02" style="stop-color:#B92183"/>
			<stop  offset="1" style="stop-color:#7D338A"/>
		</linearGradient>
		<path class="st3" d="M17.6,21.6c-0.1-0.8-0.4-1.5-0.6-2.3c-0.2-0.8-0.4-1.5-0.6-2.3c-0.5-1.9-1-3.8-1.5-5.8
			c-0.1-0.4-0.2-0.9-0.3-1.3c-0.1-0.2-0.1-0.5-0.3-0.6c-0.2-0.1-0.4-0.1-0.6-0.1c-0.3,0-0.5,0-0.8,0c-0.5,0-1.1,0-1.6,0
			c-0.4,0-0.7,0-1.1,0.1C9.9,9.4,9.6,9.6,9.4,9.9c-0.1,0.1,0,0.3,0.1,0.4c0.1,0,0.2,0,0.3,0c0,0,0.3-0.2,0.3-0.2l3,11.1l0,0
			c0,0,0,0.1,0,0.1c0.1,0.2,0.2,0.5,0.4,0.6c0.1,0.1,0.3,0.1,0.5,0.1h0.3h0.5h1.5h0.8C17.4,22,17.7,21.8,17.6,21.6z"/>
	</g>
	<linearGradient id="SVGID_3_" gradientUnits="userSpaceOnUse" x1="6.2725" y1="16.432" x2="11.6691" y2="16.432">
		<stop  offset="0" style="stop-color:#B92183"/>
		<stop  offset="2.267800e-02" style="stop-color:#B92183"/>
		<stop  offset="1" style="stop-color:#7D338A"/>
	</linearGradient>
	<path class="st4" d="M11.7,19.1l-2-8h0c0-0.1-0.2-0.2-0.3-0.2c-0.1,0-0.3,0.1-0.3,0.2l0,0L6.3,21.2l0,0c0,0,0,0.1,0,0.1
		c0,0.3,0.3,0.6,0.6,0.6h3.5c0.3,0,0.5-0.2,0.6-0.4l0,0L11.7,19.1z"/>
	<linearGradient id="SVGID_4_" gradientUnits="userSpaceOnUse" x1="16.0741" y1="15.6234" x2="19.2503" y2="15.6234">
		<stop  offset="0" style="stop-color:#B92183"/>
		<stop  offset="2.267800e-02" style="stop-color:#B92183"/>
		<stop  offset="1" style="stop-color:#7D338A"/>
	</linearGradient>
	<path class="st5" d="M19.3,19L17,10.9h0c0-0.1-0.1-0.2-0.3-0.2c-0.1,0-0.2,0.1-0.3,0.2h0l-0.4,1.6l2.2,7.8l0,0l0,0
		c0,0.1,0.1,0.2,0.2,0.2c0.1,0,0.2-0.1,0.2-0.2l0,0L19.3,19z"/>
</g>
</svg>
